<?xml version="1.0" encoding="utf-8"?>
<!-- Generator: Adobe Illustrator 21.0.0, SVG Export Plug-In . SVG Version: 6.00 Build 0)  -->
<svg version="1.1" id="Calque_1" xmlns="http://www.w3.org/2000/svg" xmlns:xlink="http://www.w3.org/1999/xlink" x="0px" y="0px"
	 viewBox="0 0 141.7 141.7" style="enable-background:new 0 0 141.7 141.7;" xml:space="preserve">
<path d="M129.4,129l-117.3-0.1c9.4-19.3,28.1-33.6,50.2-36.4L70.3,70c-1.4,2.4-20,14.9-22.8,16.2c-4.8,2.2-9.3,3-13.3-0.4
	c-4-3.4-6.6-12.9-5.5-15.2C31.9,63.7,48.3,31,48.3,31c-4.8-4.9-10.6-6.8-10.6-6.8c9.2-6.8,20.6-11,32.9-10.8c17.8,0.3,24.9,6,24.9,6
	c-2.4,0-5.7,2.4-5.7,2.4c4.4-1,10.3,0.2,10.3,0.2c4.4,1.6,21.8,24.9,23,27.9c0,0-7.7-6.7-20.2-5.3c0,0,13.7,3.4,22.4,14.3L122.5,90
	c0,0-2.8-14.6-17.8-18.2C104.7,71.8,124.9,119.7,129.4,129z"/>
</svg>
