<?xml version="1.0" encoding="utf-8"?>
<!-- Generator: Adobe Illustrator 21.0.0, SVG Export Plug-In . SVG Version: 6.00 Build 0)  -->
<svg version="1.1" id="Calque_1" xmlns="http://www.w3.org/2000/svg" xmlns:xlink="http://www.w3.org/1999/xlink" x="0px" y="0px"
	 viewBox="0 0 141.7 141.7" style="enable-background:new 0 0 141.7 141.7;" xml:space="preserve">
<style type="text/css">
	.st0{fill:#FFFFFF;stroke:#000000;stroke-width:2.8346;stroke-miterlimit:10;}
</style>
<path class="st0" d="M129.4,128.8l-117.3-0.1c9.4-19.3,28.1-33.6,50.2-36.4l7.9-22.5c-1.4,2.4-20,14.9-22.8,16.2
	c-4.8,2.2-9.3,3-13.3-0.4c-4-3.4-6.6-12.9-5.5-15.2c3.2-6.9,19.6-39.6,19.6-39.6C43.5,25.8,37.7,24,37.7,24
	c9.2-6.8,20.6-11,32.9-10.8c17.8,0.3,24.9,6,24.9,6c-2.4,0-5.7,2.4-5.7,2.4c4.4-1,10.3,0.2,10.3,0.2c4.4,1.6,21.8,24.9,23,27.9
	c0,0-7.7-6.7-20.2-5.3c0,0,13.7,3.4,22.4,14.3l-2.8,31.1c0,0-2.8-14.6-17.8-18.2C104.7,71.5,124.9,119.4,129.4,128.8z"/>
</svg>
