<?xml version="1.0" encoding="utf-8"?>
<!-- Generator: Adobe Illustrator 21.0.0, SVG Export Plug-In . SVG Version: 6.00 Build 0)  -->
<svg version="1.1" id="Calque_1" xmlns="http://www.w3.org/2000/svg" xmlns:xlink="http://www.w3.org/1999/xlink" x="0px" y="0px"
	 viewBox="0 0 141.7 141.7" style="enable-background:new 0 0 141.7 141.7;" xml:space="preserve">
<style type="text/css">
	.st0{fill:#FFFFFF;stroke:#000000;stroke-width:2.8346;stroke-miterlimit:10;}
</style>
<path class="st0" d="M13.6,128.8c2-16.2,10.7-30.3,23.2-39.6c-2.9-5.5-4.6-11.8-4.6-18.4c0-15.5,9-28.9,22.1-35.3
	c-0.4-1.4-0.6-3-0.6-4.5c0-9.8,7.9-17.7,17.7-17.7c9.8,0,17.7,7.9,17.7,17.7c0,1.6-0.2,3.1-0.6,4.5c3.9,1.9,7.4,4.4,10.4,7.4
	L73.5,67.3V86l35.7-25.9c1,3.4,1.5,7,1.5,10.7c0,6.7-1.7,12.9-4.6,18.4c12.5,9.2,21.2,23.4,23.2,39.6L13.6,128.8z"/>
</svg>
