<?xml version="1.0" encoding="utf-8"?>
<!-- Generator: Adobe Illustrator 21.0.0, SVG Export Plug-In . SVG Version: 6.00 Build 0)  -->
<svg version="1.1" id="Calque_1" xmlns="http://www.w3.org/2000/svg" xmlns:xlink="http://www.w3.org/1999/xlink" x="0px" y="0px"
	 viewBox="0 0 141.7 141.7" style="enable-background:new 0 0 141.7 141.7;" xml:space="preserve">
<path d="M106.1,89.4c2.9-5.5,4.6-11.8,4.6-18.4c0-3.7-0.5-7.3-1.5-10.7L73.5,86.2V67.6L99,43.1c-3-3-6.5-5.5-10.4-7.4
	c0.4-1.4,0.6-3,0.6-4.5c0-9.8-7.9-17.7-17.7-17.7c-9.8,0-17.7,7.9-17.7,17.7c0,1.6,0.2,3.1,0.6,4.5C41.3,42.1,32.2,55.5,32.2,71
	c0,6.7,1.7,12.9,4.6,18.4c-12.5,9.2-21.2,23.4-23.2,39.6c0,0,115.7-0.2,115.7,0C127.3,112.8,118.6,98.7,106.1,89.4z"/>
</svg>
