<?xml version="1.0" encoding="utf-8"?>
<!-- Generator: Adobe Illustrator 21.0.0, SVG Export Plug-In . SVG Version: 6.00 Build 0)  -->
<svg version="1.1" id="Calque_1" xmlns="http://www.w3.org/2000/svg" xmlns:xlink="http://www.w3.org/1999/xlink" x="0px" y="0px"
	 viewBox="0 0 141.7 141.7" style="enable-background:new 0 0 141.7 141.7;" xml:space="preserve">
<path d="M94.7,81.9c2.2-4.1,3.4-8.8,3.4-13.8c0-11-5.9-20.5-14.5-25.2c2.2-2.7,3.4-6.2,3.4-9.9c0-8.8-7.1-16-16-16
	c-8.8,0-16,7.1-16,16c0,3.7,1.3,7.2,3.4,9.9c-8.6,4.7-14.5,14.3-14.5,25.2c0,5,1.2,9.7,3.4,13.8c-16.7,7.8-28.5,23.8-30.5,43.2
	l108.3-0.1C123.1,105.7,111.3,89.8,94.7,81.9z"/>
</svg>
