<?xml version="1.0" encoding="utf-8"?>
<!-- Generator: Adobe Illustrator 21.0.0, SVG Export Plug-In . SVG Version: 6.00 Build 0)  -->
<svg version="1.1" id="Calque_1" xmlns="http://www.w3.org/2000/svg" xmlns:xlink="http://www.w3.org/1999/xlink" x="0px" y="0px"
	 viewBox="0 0 141.7 141.7" style="enable-background:new 0 0 141.7 141.7;" xml:space="preserve">
<path d="M106,106.2c1-24.2,22.8-63.8,22.8-63.8c-18.2,9.8-30,15.9-42.8,31.4L71.3,30.2c4.4-0.3,7.9-3.9,7.9-8.4
	c0-4.6-3.8-8.4-8.4-8.4c-4.6,0-8.4,3.8-8.4,8.4c0,4.5,3.6,8.2,8.1,8.4L54.9,73.6C42.1,58.2,31.4,52.2,13.2,42.4
	c0,0,21.7,39.7,22.7,63.8c-10,6.8-18,11.5-22.8,22.8l114.6,0C123,118,115.8,112.8,106,106.2z"/>
</svg>
