<?xml version="1.0" encoding="utf-8"?>
<!-- Generator: Adobe Illustrator 21.0.0, SVG Export Plug-In . SVG Version: 6.00 Build 0)  -->
<svg version="1.1" id="Calque_1" xmlns="http://www.w3.org/2000/svg" xmlns:xlink="http://www.w3.org/1999/xlink" x="0px" y="0px"
	 viewBox="0 0 141.7 141.7" style="enable-background:new 0 0 141.7 141.7;" xml:space="preserve">
<style type="text/css">
	.st0{fill:#FFFFFF;stroke:#000000;stroke-width:2.8346;stroke-miterlimit:10;}
</style>
<path class="st0" d="M106,105.9c1-24.2,22.8-63.8,22.8-63.8C110.5,52,98.8,58,85.9,73.5L71.3,30c4.4-0.3,7.9-3.9,7.9-8.4
	c0-4.6-3.8-8.4-8.4-8.4c-4.6,0-8.4,3.8-8.4,8.4c0,4.5,3.6,8.2,8.1,8.4L54.9,73.4C42.1,57.9,31.4,51.9,13.2,42.1
	c0,0,21.7,39.7,22.7,63.8c-10,6.8-18,11.5-22.8,22.8l114.6,0C123,117.8,115.8,112.6,106,105.9z"/>
</svg>
