<?xml version="1.0" encoding="utf-8"?>
<!-- Generator: Adobe Illustrator 21.0.0, SVG Export Plug-In . SVG Version: 6.00 Build 0)  -->
<svg version="1.1" id="Calque_1" xmlns="http://www.w3.org/2000/svg" xmlns:xlink="http://www.w3.org/1999/xlink" x="0px" y="0px"
	 viewBox="0 0 141.7 141.7" style="enable-background:new 0 0 141.7 141.7;" xml:space="preserve">
<style type="text/css">
	.st0{fill:#FFFFFF;stroke:#000000;stroke-width:2.8346;stroke-miterlimit:10;}
</style>
<path class="st0" d="M115.2,108.7c8.1-4.3,13.7-14,13.7-25.3c0-15.2-10.3-27.6-22.9-27.6c-5.1,0-9.8,2-13.6,5.4
	c-3.6-5.7-9.5-9.9-16.4-11.2V36h13.9v-9.1H76V13.2h-9.1v13.7H52.9V36h13.9v14C60,51.3,54,55.4,50.4,61.1c-3.8-3.3-8.4-5.2-13.4-5.2
	C24.3,55.9,14,68.2,14,83.4c0,11.2,5.6,20.9,13.6,25.2c-5.8,5.7-10.5,12.5-13.7,20.1l114.8,0C125.6,121.2,120.9,114.4,115.2,108.7z"
	/>
</svg>
